<svg width="1068" height="167" viewBox="0 0 1068 167" fill="none" xmlns="http://www.w3.org/2000/svg">
<rect width="1068" height="167" fill="black"/>
<path d="M138.969 43.8C138.969 44.8 138.502 45.4 137.569 45.6L132.569 46.8L106.269 111.2H97.5688L71.3688 46.8C68.5688 46.2 66.8688 45.8 66.2687 45.6C65.2688 45.4 64.7688 44.8 64.7688 43.8V39.4H88.5688V43.8C88.5688 44.8667 87.9021 45.5 86.5688 45.7L84.3688 46.2L81.3688 46.8L99.6688 92.3C100.402 93.9 101.202 96.5 102.069 100.1C103.002 96.2333 103.769 93.6 104.369 92.2L122.469 46.7C119.269 46.1 117.369 45.7 116.769 45.5C115.769 45.3 115.269 44.6667 115.269 43.6V39.4L138.969 39.5V43.8ZM171.098 103.7L177.198 104.9C177.998 105.1 178.398 105.7 178.398 106.7V111H154.298V106.7C154.298 105.633 154.765 105 155.698 104.8L161.498 103.7V46.6L155.498 45.4C154.698 45.2 154.298 44.6 154.298 43.6V39.4H178.398V43.6C178.398 44.6667 177.898 45.3 176.898 45.5L171.098 46.6V103.7ZM263.167 75.2C263.167 82.2667 261.701 88.5 258.767 93.9C255.834 99.3 251.701 103.5 246.367 106.5C241.034 109.5 234.867 111 227.867 111H194.767V106.8C194.767 105.733 195.301 105.1 196.367 104.9L201.967 103.8V46.7L196.367 45.5C195.301 45.3 194.767 44.6667 194.767 43.6V39.4H227.867C235.001 39.4 241.234 40.9333 246.567 44C251.901 47 256.001 51.2 258.867 56.6C261.734 62 263.167 68.2 263.167 75.2ZM253.167 75.2C253.167 66.6667 250.967 59.8667 246.567 54.8C242.167 49.7333 235.934 47.2 227.867 47.2H211.767V103.2H227.867C235.867 103.2 242.067 100.7 246.467 95.7C250.934 90.7 253.167 83.8667 253.167 75.2ZM330.484 56.7H325.684C324.484 56.7 323.784 56.1333 323.584 55L322.884 47.3H296.084V71.1H322.484V78.7H296.084V103.2H322.884L323.484 96C323.684 94.9333 324.417 94.4 325.684 94.4H330.484V111H279.084V106.8C279.084 105.733 279.584 105.1 280.584 104.9L286.284 103.8V46.7C283.084 46.1 281.184 45.7 280.584 45.5C279.584 45.3 279.084 44.6667 279.084 43.6V39.4H330.484V56.7ZM417.175 75.4C417.175 82.5333 415.675 88.9 412.675 94.5C409.675 100.033 405.508 104.333 400.175 107.4C394.842 110.467 388.775 112 381.975 112C375.108 112 368.975 110.433 363.575 107.3C358.175 104.167 353.975 99.8333 350.975 94.3C348.042 88.7 346.575 82.3667 346.575 75.3C346.575 68.2333 348.042 61.9333 350.975 56.4C353.975 50.8 358.142 46.4333 363.475 43.3C368.875 40.1667 375.042 38.6 381.975 38.6C388.908 38.6 395.042 40.1667 400.375 43.3C405.708 46.3667 409.842 50.6667 412.775 56.2C415.775 61.7333 417.275 68.0667 417.275 75.2L417.175 75.4ZM407.175 75.4C407.175 66.8 404.942 59.9667 400.475 54.9C396.075 49.7667 389.842 47.2 381.775 47.2C376.375 47.2 371.775 48.4 367.975 50.8C364.175 53.2 361.275 56.5333 359.275 60.8C357.342 65.0667 356.375 69.9333 356.375 75.4C356.375 81.0667 357.408 86.0333 359.475 90.3C361.542 94.5 364.475 97.7667 368.275 100.1C372.142 102.433 376.675 103.6 381.875 103.6C387.142 103.6 391.675 102.433 395.475 100.1C399.275 97.7 402.175 94.3667 404.175 90.1C406.242 85.8333 407.275 80.9333 407.275 75.4H407.175ZM522.45 55.2H517.55C516.483 55.2 515.85 54.8667 515.65 54.2C515.317 53.0667 514.983 50.8667 514.65 47.6H497.85V103.8L499.05 104C502.117 104.6 503.783 104.933 504.05 105C504.717 105.2 505.05 105.8 505.05 106.8V111H480.85V106.8C480.85 106.267 480.983 105.833 481.25 105.5C481.583 105.1 482.017 104.867 482.55 104.8L488.05 103.7V47.5H471.15C470.75 51.2333 470.45 53.4667 470.25 54.2C470.05 54.8667 469.383 55.2 468.25 55.2H463.45V39.4H522.45V55.2ZM607.341 43.7C607.341 44.7667 606.807 45.4 605.741 45.6L600.041 46.7V83C600.041 91.2667 597.507 98.1333 592.441 103.6C587.241 109.133 580.274 111.9 571.541 111.9C562.874 111.9 555.941 109.133 550.741 103.6C545.607 98.1333 543.041 91.2667 543.041 83V46.7C539.841 46.1 537.941 45.7 537.341 45.5C536.341 45.3 535.841 44.6667 535.841 43.6V39.4H560.941V43.6C560.941 44.6667 560.407 45.3 559.341 45.5C557.874 45.7667 555.674 46.1333 552.741 46.6V82.8C552.741 89.0667 554.407 94 557.741 97.6C561.141 101.4 565.774 103.3 571.641 103.3C577.507 103.3 582.141 101.4 585.541 97.6C588.874 93.8667 590.541 88.9667 590.541 82.9V46.6L583.941 45.5C582.874 45.3 582.341 44.6667 582.341 43.6V39.4H607.341V43.7ZM680.243 55.2H675.343C674.276 55.2 673.643 54.8667 673.443 54.2C673.11 53.0667 672.776 50.8667 672.443 47.6H655.643V103.8L656.843 104C659.91 104.6 661.576 104.933 661.843 105C662.51 105.2 662.843 105.8 662.843 106.8V111H638.643V106.8C638.643 106.267 638.776 105.833 639.043 105.5C639.376 105.1 639.81 104.867 640.343 104.8L645.843 103.7V47.5H628.943C628.543 51.2333 628.243 53.4667 628.043 54.2C627.843 54.8667 627.176 55.2 626.043 55.2H621.243V39.4H680.243V55.2ZM762.488 75.4C762.488 82.5333 760.988 88.9 757.988 94.5C754.988 100.033 750.821 104.333 745.488 107.4C740.154 110.467 734.088 112 727.288 112C720.421 112 714.288 110.433 708.888 107.3C703.488 104.167 699.288 99.8333 696.287 94.3C693.354 88.7 691.888 82.3667 691.888 75.3C691.888 68.2333 693.354 61.9333 696.287 56.4C699.288 50.8 703.454 46.4333 708.788 43.3C714.188 40.1667 720.354 38.6 727.288 38.6C734.221 38.6 740.354 40.1667 745.688 43.3C751.021 46.3667 755.154 50.6667 758.088 56.2C761.088 61.7333 762.588 68.0667 762.588 75.2L762.488 75.4ZM752.488 75.4C752.488 66.8 750.254 59.9667 745.788 54.9C741.388 49.7667 735.154 47.2 727.088 47.2C721.688 47.2 717.088 48.4 713.288 50.8C709.488 53.2 706.588 56.5333 704.588 60.8C702.654 65.0667 701.688 69.9333 701.688 75.4C701.688 81.0667 702.721 86.0333 704.788 90.3C706.854 94.5 709.788 97.7667 713.588 100.1C717.454 102.433 721.988 103.6 727.188 103.6C732.454 103.6 736.988 102.433 740.788 100.1C744.588 97.7 747.488 94.3667 749.488 90.1C751.554 85.8333 752.588 80.9333 752.588 75.4H752.488ZM837.778 104.8C838.245 104.933 838.611 105.167 838.878 105.5C839.145 105.767 839.278 106.133 839.278 106.6V111H828.878C827.145 111 825.878 110.3 825.078 108.9L806.478 83.3C806.011 82.6333 805.411 82.0667 804.678 81.6C804.078 81.2 803.078 81 801.678 81H795.278V103.6L800.878 104.8C801.345 104.933 801.711 105.167 801.978 105.5C802.311 105.767 802.478 106.133 802.478 106.6V110.9H778.378V106.6C778.378 106.133 778.511 105.767 778.778 105.5C779.045 105.167 779.411 104.933 779.878 104.8L785.678 103.6V46.6L779.878 45.4C779.411 45.2667 779.045 45.0667 778.778 44.8C778.511 44.4667 778.378 44.0667 778.378 43.6V39.2H804.878C809.345 39.2 813.278 39.6667 816.678 40.6C820.011 41.5333 822.745 42.8667 824.878 44.6C827.078 46.4 828.678 48.5 829.678 50.9C830.678 53.3 831.178 56.0667 831.178 59.2C831.178 61.6667 830.778 64 829.978 66.2C829.178 68.3333 828.011 70.3333 826.478 72.2C824.945 74.0667 823.111 75.5667 820.978 76.7C818.311 78.1667 815.845 79.1333 813.578 79.6C814.778 80.3333 815.845 81.3333 816.778 82.6L832.278 103.8C835.478 104.333 837.345 104.667 837.878 104.8H837.778ZM804.278 74C807.211 74 809.711 73.6667 811.778 73C813.778 72.3333 815.578 71.3333 817.178 70C818.645 68.7333 819.745 67.2667 820.478 65.6C821.211 63.9333 821.578 62 821.578 59.8C821.578 55.6 820.178 52.4 817.378 50.2C814.645 48.0667 810.478 47 804.878 47H795.178V74H804.278ZM872.173 103.7L878.273 104.9C879.073 105.1 879.473 105.7 879.473 106.7V111H855.373V106.7C855.373 105.633 855.839 105 856.773 104.8L862.573 103.7V46.6L856.573 45.4C855.773 45.2 855.373 44.6 855.373 43.6V39.4H879.473V43.6C879.473 44.6667 878.973 45.3 877.973 45.5L872.173 46.6V103.7ZM965.941 105.4C966.808 105.6 967.241 106.133 967.241 107V111H946.641V107C946.641 106.133 947.108 105.6 948.041 105.4L952.141 104.2L946.541 89.8H915.641L910.041 104.2L914.141 105.4C915.008 105.6 915.441 106.133 915.441 107V111H894.941V107C894.941 106.133 895.375 105.6 896.241 105.4L900.241 104.2L926.241 39.4H936.041L961.941 104.2L965.941 105.4ZM933.241 55.3C932.708 53.9667 931.975 51.7 931.041 48.5C930.241 51.5667 929.575 53.8333 929.041 55.3L918.341 82.8H943.841L933.241 55.3ZM983.088 111V106.7C983.088 106.233 983.221 105.833 983.488 105.5C983.754 105.1 984.121 104.867 984.588 104.8L990.288 103.7V46.6L984.588 45.5C984.121 45.4333 983.754 45.2333 983.488 44.9C983.221 44.5 983.088 44.0667 983.088 43.6V39.4H1007.09V43.6C1007.09 44.0667 1006.95 44.5 1006.69 44.9C1006.42 45.2333 1006.05 45.4333 1005.59 45.5L999.888 46.6V102.8H1025.69C1025.89 99.7333 1026.09 97.8333 1026.29 97.1C1026.35 96.6333 1026.59 96.2333 1026.99 95.9C1027.39 95.5667 1027.85 95.4 1028.39 95.4H1033.29V111H983.088Z" fill="white"/>
</svg>
