<svg width="50" height="49" viewBox="0 0 50 49" fill="none" xmlns="http://www.w3.org/2000/svg">
<path d="M49.2675 26.4769V47.6585C49.2675 48.1465 49.0791 48.5884 48.775 48.9077C48.4709 49.2271 48.05 49.4251 47.5854 49.4251C46.6561 49.4251 45.9033 48.6344 45.9033 47.6585V38.4593C45.9033 37.6122 45.2501 36.9264 44.4445 36.9264H44.4435C44.1134 36.9264 43.8083 37.0415 43.564 37.2363C43.212 37.5148 42.9847 37.9588 42.9847 38.4593V44.5872C42.9847 45.1045 42.7853 45.5715 42.4632 45.9108C42.1401 46.249 41.6944 46.4584 41.2028 46.4584C40.2186 46.4584 39.421 45.6208 39.421 44.5872V25.2601L31.7002 25.8413L22.2763 26.5503L25.4063 9.61267H33.2089C42.0782 9.61257 49.2675 17.1636 49.2675 26.4769Z" fill="#DA4A54"/>
<path d="M43.564 27.0935V37.2364C43.212 37.515 42.9847 37.9589 42.9847 38.4595V44.5874C42.9847 45.1047 42.7853 45.5717 42.4632 45.9109C42.1363 46.2532 41.6839 46.4635 41.1853 46.4585C40.2005 46.4486 39.4209 45.5732 39.4209 44.5388V25.2601L31.7001 25.8414L32.4231 19.6548H36.4806C40.3926 19.6548 43.564 22.9853 43.564 27.0935Z" fill="#D82E3D"/>
<path d="M27.0736 36.8934C21.0945 43.159 11.3926 43.159 5.4142 36.8941L5.20685 36.6764C-0.759502 30.3974 -0.759502 20.2089 5.20685 13.9299C7.75715 11.2458 10.4111 8.67055 13.1693 6.20484C14.1797 5.3007 15.2049 4.41075 16.2435 3.53625C16.938 4.12041 17.6248 4.71136 18.3065 5.3089C24.4753 10.7164 30.1335 16.6585 35.2827 23.1366C35.8517 23.8526 36.4144 24.5738 36.9707 25.3031C36.138 26.3937 35.2905 27.4703 34.4296 28.5314C32.0817 31.4282 29.6294 34.2152 27.0736 36.8934Z" fill="#655E66"/>
<path d="M3.04495 33.82C-0.641901 27.6113 0.0793962 19.3265 5.2068 13.9301C8.69195 10.2627 12.3711 6.79742 16.2434 3.5365C18.0709 5.07511 19.8548 6.65969 21.5957 8.28943C17.7825 11.9087 14.0611 15.6242 10.4336 19.4383C5.81595 24.2934 3.09924 29.8461 3.04495 33.82Z" fill="#535057"/>
<path d="M34.4295 28.5316C34.3837 28.4923 34.3408 28.45 34.2984 28.4057L13.2898 6.34343C13.2475 6.29901 13.2066 6.25307 13.1692 6.20497C14.1796 5.30084 15.2048 4.41088 16.2433 3.53638C16.9379 4.12053 17.6246 4.71144 18.3063 5.30903L35.2826 23.1367C35.8516 23.8527 36.4142 24.5739 36.9706 25.3031C36.138 26.3938 35.2905 27.4705 34.4295 28.5316Z" fill="#535057"/>
<path d="M38.7996 23.6784L17.7913 1.61634C16.9625 0.746052 15.6187 0.746052 14.79 1.61634C13.9613 2.48662 13.9613 3.89777 14.79 4.76807L35.7984 26.8301C36.6271 27.7004 37.9709 27.7004 38.7996 26.8301C39.6284 25.9597 39.6284 24.5487 38.7996 23.6784Z" fill="#655E66"/>
<path d="M19.8088 9.11523C19.8088 9.6853 20.0161 10.2555 20.4307 10.6909L14.7901 4.76732C14.3755 4.33198 14.1682 3.76178 14.1682 3.19168C14.1689 2.62077 14.3762 2.05066 14.7901 1.61604C15.6185 0.746072 16.9616 0.745252 17.7908 1.61604L23.4315 7.53957C22.603 6.66962 21.2591 6.66952 20.4307 7.53957C20.0168 7.97418 19.8095 8.54431 19.8088 9.11523Z" fill="#535057"/>
<path d="M49.2674 33.9523C49.672 33.9523 49.9998 33.6079 49.9998 33.1832V26.4771C49.9998 16.7541 42.4673 8.84381 33.2087 8.84381H25.7095L18.3089 1.07217C17.7698 0.505962 17.053 0.194092 16.2905 0.194092C15.528 0.194092 14.8112 0.505962 14.272 1.07217C13.7328 1.63838 13.4359 2.39113 13.4359 3.19188C13.4359 3.71019 13.561 4.20811 13.7949 4.6487C10.6357 7.41428 7.5737 10.35 4.68796 13.3872C1.85346 16.3701 0.194171 20.3335 0.0157518 24.5472C-0.161398 28.7338 1.13207 32.8104 3.65797 36.0263C3.80279 36.2107 4.01227 36.3061 4.2234 36.3061C4.38747 36.3061 4.5526 36.2485 4.68903 36.1303C5.00105 35.8599 5.0454 35.3752 4.78796 35.0475C2.49331 32.1258 1.3182 28.4209 1.47934 24.6155C1.64145 20.7861 3.14927 17.1844 5.725 14.4737C8.58475 11.4639 11.6195 8.5547 14.7509 5.81442L34.8014 26.8705C32.1986 30.1518 29.4287 33.3387 26.5566 36.3491C23.9406 39.0902 20.4638 40.6756 16.7666 40.8135C13.0888 40.9512 9.53135 39.6481 6.75155 37.1454C6.4444 36.869 5.9821 36.9062 5.71885 37.2288C5.45555 37.5513 5.491 38.0368 5.7982 38.3133C8.7116 40.9363 12.3992 42.3618 16.2391 42.3618C16.4318 42.3618 16.6253 42.3582 16.8187 42.351C20.8868 42.1992 24.7126 40.4544 27.5913 37.4381C30.4897 34.4002 33.285 31.1844 35.9123 27.8736C36.342 28.1241 36.8203 28.2503 37.2989 28.2503C37.7785 28.2503 38.2579 28.1236 38.6883 27.872V44.5874C38.6883 45.2937 38.9503 45.9569 39.4245 46.4535C39.8989 46.9532 40.5305 47.2282 41.203 47.2282C42.589 47.2282 43.7167 46.0436 43.7167 44.5874V38.4587C43.7167 38.2549 43.792 38.0638 43.9307 37.9187C44.0671 37.7749 44.2495 37.6957 44.4442 37.6957C44.8449 37.6957 45.1707 38.0379 45.1707 38.4587V47.6589C45.1707 48.335 45.4213 48.9713 45.8782 49.4528C46.3349 49.9308 46.941 50.1941 47.5848 50.1941C48.9165 50.1941 49.9998 49.0568 49.9998 47.6589V36.2599C49.9998 35.8352 49.672 35.4908 49.2674 35.4908C48.8628 35.4908 48.535 35.8352 48.535 36.2599V47.6589C48.535 48.2086 48.1087 48.6558 47.5848 48.6558C47.3313 48.6558 47.0926 48.5519 46.9141 48.3651C46.7345 48.1758 46.6355 47.925 46.6355 47.6589V38.4587C46.6355 37.1897 45.6525 36.1574 44.4442 36.1574C43.8572 36.1574 43.3064 36.3973 42.895 36.8309C42.4802 37.2649 42.2518 37.843 42.2518 38.4587V44.5874C42.2518 45.1954 41.7813 45.6899 41.203 45.6899C40.9226 45.6899 40.6594 45.5753 40.4604 45.3657C40.2623 45.1583 40.1532 44.8819 40.1532 44.5874V25.2599C40.1532 25.2569 40.1524 25.2546 40.1522 25.2517C40.1517 24.4848 39.8735 23.7181 39.3175 23.1342L27.1743 10.3821H33.2087C41.6596 10.3821 48.535 17.6023 48.535 26.4771V33.1832C48.535 33.6079 48.8628 33.9523 49.2674 33.9523ZM38.2816 26.2859C37.7397 26.855 36.8581 26.855 36.3162 26.2859L15.3077 4.22381C14.7659 3.65471 14.7659 2.72884 15.3077 2.15987C15.5786 1.87538 15.9345 1.73314 16.2905 1.73314C16.6463 1.73314 17.0022 1.87538 17.2732 2.15987L38.2816 24.2219C38.8235 24.7909 38.8235 25.7169 38.2816 26.2859Z" fill="black"/>
</svg>
