<svg width="362" height="116" viewBox="0 0 362 116" fill="none" xmlns="http://www.w3.org/2000/svg">
<rect x="3" y="3" width="356" height="110" rx="55" fill="#702F2F" stroke="white" stroke-width="6"/>
<path d="M79.15 71H74.65V54.35H56.35V71H51.85V35.3H56.35V50.4H74.65V35.3H79.15V71ZM98.4605 43.75C101.727 43.75 104.144 44.4667 105.711 45.9C107.277 47.3333 108.061 49.6167 108.061 52.75V71H104.861L104.011 67.2H103.811C102.644 68.6667 101.411 69.75 100.111 70.45C98.8439 71.15 97.0772 71.5 94.8105 71.5C92.3772 71.5 90.3605 70.8667 88.7605 69.6C87.1605 68.3 86.3605 66.2833 86.3605 63.55C86.3605 60.8833 87.4105 58.8333 89.5105 57.4C91.6105 55.9333 94.8439 55.1333 99.2105 55L103.761 54.85V53.25C103.761 51.0167 103.277 49.4667 102.311 48.6C101.344 47.7333 99.9772 47.3 98.2105 47.3C96.8105 47.3 95.4772 47.5167 94.2105 47.95C92.9439 48.35 91.7605 48.8167 90.6605 49.35L89.3105 46.05C90.4772 45.4167 91.8605 44.8833 93.4605 44.45C95.0605 43.9833 96.7272 43.75 98.4605 43.75ZM103.711 57.9L99.7605 58.05C96.4272 58.1833 94.1105 58.7167 92.8105 59.65C91.5439 60.5833 90.9105 61.9 90.9105 63.6C90.9105 65.1 91.3605 66.2 92.2605 66.9C93.1939 67.6 94.3772 67.95 95.8105 67.95C98.0772 67.95 99.9605 67.3333 101.461 66.1C102.961 64.8333 103.711 62.9 103.711 60.3V57.9ZM120.188 44.2V53.95C120.188 57.0167 121.905 58.55 125.338 58.55C127.005 58.55 128.521 58.3 129.888 57.8C131.255 57.2667 132.655 56.5667 134.088 55.7V44.2H138.488V71H134.088V59.05C132.588 60.0167 131.105 60.7833 129.638 61.35C128.205 61.8833 126.471 62.15 124.438 62.15C121.705 62.15 119.571 61.4333 118.038 60C116.538 58.5667 115.788 56.65 115.788 54.25V44.2H120.188ZM157.152 43.75C160.419 43.75 162.835 44.4667 164.402 45.9C165.969 47.3333 166.752 49.6167 166.752 52.75V71H163.552L162.702 67.2H162.502C161.335 68.6667 160.102 69.75 158.802 70.45C157.535 71.15 155.769 71.5 153.502 71.5C151.069 71.5 149.052 70.8667 147.452 69.6C145.852 68.3 145.052 66.2833 145.052 63.55C145.052 60.8833 146.102 58.8333 148.202 57.4C150.302 55.9333 153.535 55.1333 157.902 55L162.452 54.85V53.25C162.452 51.0167 161.969 49.4667 161.002 48.6C160.035 47.7333 158.669 47.3 156.902 47.3C155.502 47.3 154.169 47.5167 152.902 47.95C151.635 48.35 150.452 48.8167 149.352 49.35L148.002 46.05C149.169 45.4167 150.552 44.8833 152.152 44.45C153.752 43.9833 155.419 43.75 157.152 43.75ZM162.402 57.9L158.452 58.05C155.119 58.1833 152.802 58.7167 151.502 59.65C150.235 60.5833 149.602 61.9 149.602 63.6C149.602 65.1 150.052 66.2 150.952 66.9C151.885 67.6 153.069 67.95 154.502 67.95C156.769 67.95 158.652 67.3333 160.152 66.1C161.652 64.8333 162.402 62.9 162.402 60.3V57.9ZM193.529 47.9H184.779V71H180.429V47.9H171.779V44.2H193.529V47.9ZM203.209 55.2H211.159C218.125 55.2 221.609 57.7333 221.609 62.8C221.609 65.3 220.759 67.3 219.059 68.8C217.359 70.2667 214.659 71 210.959 71H198.809V44.2H203.209V55.2ZM217.209 63.05C217.209 61.4167 216.625 60.3167 215.459 59.75C214.325 59.15 212.725 58.85 210.659 58.85H203.209V67.45H210.759C212.625 67.45 214.159 67.1167 215.359 66.45C216.592 65.7833 217.209 64.65 217.209 63.05ZM258.715 47.9H249.965V71H245.615V47.9H236.965V44.2H258.715V47.9ZM259.794 44.2H264.494L270.294 59.45C270.794 60.7833 271.244 62.0667 271.644 63.3C272.044 64.5 272.344 65.65 272.544 66.75H272.744C272.944 65.9167 273.261 64.8333 273.694 63.5C274.127 62.1333 274.577 60.7667 275.044 59.4L280.494 44.2H285.244L273.694 74.7C272.761 77.2333 271.544 79.25 270.044 80.75C268.577 82.25 266.544 83 263.944 83C263.144 83 262.444 82.95 261.844 82.85C261.244 82.7833 260.727 82.7 260.294 82.6V79.1C260.661 79.1667 261.094 79.2333 261.594 79.3C262.127 79.3667 262.677 79.4 263.244 79.4C264.777 79.4 266.011 78.9667 266.944 78.1C267.911 77.2333 268.661 76.0833 269.194 74.65L270.594 71.1L259.794 44.2ZM302.232 43.7C305.532 43.7 308.182 44.85 310.182 47.15C312.216 49.45 313.232 52.9167 313.232 57.55C313.232 62.1167 312.216 65.5833 310.182 67.95C308.182 70.3167 305.516 71.5 302.182 71.5C300.116 71.5 298.399 71.1167 297.032 70.35C295.699 69.55 294.649 68.6333 293.882 67.6H293.582C293.649 68.1667 293.716 68.8833 293.782 69.75C293.849 70.6167 293.882 71.3667 293.882 72V83H289.482V44.2H293.082L293.682 47.85H293.882C294.682 46.6833 295.732 45.7 297.032 44.9C298.332 44.1 300.066 43.7 302.232 43.7ZM301.432 47.4C298.699 47.4 296.766 48.1667 295.632 49.7C294.532 51.2333 293.949 53.5667 293.882 56.7V57.55C293.882 60.85 294.416 63.4 295.482 65.2C296.582 66.9667 298.599 67.85 301.532 67.85C303.166 67.85 304.499 67.4 305.532 66.5C306.599 65.6 307.382 64.3833 307.882 62.85C308.416 61.2833 308.682 59.5 308.682 57.5C308.682 54.4333 308.082 51.9833 306.882 50.15C305.716 48.3167 303.899 47.4 301.432 47.4Z" fill="white"/>
</svg>
